<?xml version="1.0" encoding="UTF-8"?>
<svg version="1.1" xmlns="http://www.w3.org/2000/svg" width="208" height="208">
<path d="M0 0 C1.22847656 -0.01160156 2.45695312 -0.02320312 3.72265625 -0.03515625 C14.92258716 0.0004745 24.82115342 1.94843824 34.75 7.1875 C35.42893311 7.53570801 36.10786621 7.88391602 36.80737305 8.24267578 C41.76037322 10.8402492 46.1916995 13.80559009 50.5 17.375 C51.49 18.035 52.48 18.695 53.5 19.375 C53.5 20.035 53.5 20.695 53.5 21.375 C54.33724609 21.684375 54.33724609 21.684375 55.19140625 22 C58.34260985 23.876859 60.26965143 26.48645928 62.4375 29.375 C62.87916504 29.95878418 63.32083008 30.54256836 63.77587891 31.14404297 C69.72803691 39.18506322 73.40323366 47.89537901 76.5 57.375 C77.03947266 58.86580078 77.03947266 58.86580078 77.58984375 60.38671875 C79.14355669 65.9527424 78.88284579 71.76708434 78.875 77.5 C78.87338867 78.70962402 78.87177734 79.91924805 78.87011719 81.16552734 C78.75344348 89.63580982 78.02062601 96.5932025 74.5 104.375 C74.03207031 105.56802734 74.03207031 105.56802734 73.5546875 106.78515625 C69.37777344 117.01684068 63.10519408 126.37433583 55.5 134.375 C54.84 134.375 54.18 134.375 53.5 134.375 C53.5 135.035 53.5 135.695 53.5 136.375 C43.1115806 145.87353618 30.41937638 151.97598471 16.6953125 154.8671875 C14.53591296 155.16256767 14.53591296 155.16256767 13.5 156.375 C9.13121248 156.63079891 4.75037488 156.56023999 0.375 156.5625 C-0.84960938 156.57474609 -2.07421875 156.58699219 -3.3359375 156.59960938 C-9.46877695 156.60956528 -14.74331553 156.5346687 -20.5 154.375 C-21.66917969 153.95863281 -22.83835938 153.54226562 -24.04296875 153.11328125 C-34.59919388 148.98356831 -45.25946171 144.38663445 -53.5 136.375 C-53.5 135.715 -53.5 135.055 -53.5 134.375 C-54.05816406 134.16875 -54.61632812 133.9625 -55.19140625 133.75 C-58.34260985 131.873141 -60.26965143 129.26354072 -62.4375 126.375 C-63.09999756 125.49932373 -63.09999756 125.49932373 -63.77587891 124.60595703 C-73.74716594 111.13532657 -77.69396522 96.90635757 -77.74023438 80.35742188 C-77.74987522 78.27692675 -77.7809061 76.19744862 -77.8125 74.1171875 C-77.97416005 53.72897497 -69.49996981 36.10296824 -55.5 21.375 C-54.84 21.375 -54.18 21.375 -53.5 21.375 C-53.5 20.715 -53.5 20.055 -53.5 19.375 C-38.45412713 5.61797285 -20.15293178 -0.1903215 0 0 Z M-51.5 29.375 C-51.5 30.035 -51.5 30.695 -51.5 31.375 C-52.16 31.375 -52.82 31.375 -53.5 31.375 C-65.05299578 44.56566271 -70.92916339 62.86276504 -70.71484375 80.22265625 C-69.63085673 96.12770222 -63.83871753 112.08030888 -53.5 124.375 C-52.84 124.375 -52.18 124.375 -51.5 124.375 C-51.26410156 124.95378906 -51.02820313 125.53257812 -50.78515625 126.12890625 C-44.68361314 136.7926974 -28.50445428 143.1504842 -17.2109375 146.2890625 C0.02381116 150.37801617 17.98066016 148.73712513 33.67578125 140.15625 C43.29406379 134.10454017 43.29406379 134.10454017 51.5 126.375 C51.5 125.715 51.5 125.055 51.5 124.375 C52.16 124.375 52.82 124.375 53.5 124.375 C65.05299578 111.18433729 70.92916339 92.88723496 70.71484375 75.52734375 C69.63085673 59.62229778 63.83871753 43.66969112 53.5 31.375 C52.84 31.375 52.18 31.375 51.5 31.375 C51.14615234 30.50681641 51.14615234 30.50681641 50.78515625 29.62109375 C44.68361314 18.9573026 28.50445428 12.5995158 17.2109375 9.4609375 C-6.73875614 3.77885941 -34.8929548 9.97215595 -51.5 29.375 Z " fill="#000000" transform="translate(103.5,25.625)"/>
<path d="M0 0 C0.89847656 -0.03287109 1.79695313 -0.06574219 2.72265625 -0.09960938 C7.16080862 -0.13566527 9.41978059 -0.07285615 13.09375 2.5859375 C15.17511854 5.50785872 16.50204085 8.14239562 17.75 11.5 C19.17088443 15.28107838 20.5373536 18.31886258 23.125 21.4375 C23.47813722 17.40586124 23.47813722 17.40586124 23.125 13.4375 C20.68003957 11.72038757 20.68003957 11.72038757 18.125 10.4375 C17.5 8 17.5 8 18.125 5.4375 C23.13969767 0.68673379 26.74724897 0.23221346 33.4375 0.1875 C34.19740234 0.166875 34.95730469 0.14625 35.74023438 0.125 C40.36822687 0.09283324 43.37698327 0.42783553 47.125 3.4375 C49.60544315 7.15816472 49.56881173 10.30290474 49.75 14.625 C49.80800781 15.74938477 49.80800781 15.74938477 49.8671875 16.89648438 C49.96128216 18.74309199 50.04422319 20.5902619 50.125 22.4375 C53.5538774 17.40660611 56.04483912 12.49437112 58.03515625 6.734375 C59.3621135 3.93777691 60.74776656 2.42344569 63.125 0.4375 C65.62695312 -0.08007812 65.62695312 -0.08007812 68.40625 -0.09375 C69.41300781 -0.09890625 70.41976562 -0.1040625 71.45703125 -0.109375 C72.50246094 -0.09390625 73.54789062 -0.0784375 74.625 -0.0625 C76.19314453 -0.08570312 76.19314453 -0.08570312 77.79296875 -0.109375 C78.79972656 -0.10421875 79.80648437 -0.0990625 80.84375 -0.09375 C82.21950195 -0.08698242 82.21950195 -0.08698242 83.62304688 -0.08007812 C86.90275402 0.59839369 88.11968761 1.79424027 90.125 4.4375 C90.125 14.27199503 85.07399741 20.86019741 78.9296875 28.140625 C77.32003788 30.18926998 76.17955075 32.06747873 75.125 34.4375 C75.63289063 34.86160156 76.14078125 35.28570312 76.6640625 35.72265625 C87.98228861 45.36646314 87.98228861 45.36646314 90.125 51.125 C90.125 53.88408366 89.74367221 55.20219076 88.125 57.4375 C83.55223063 60.24337532 78.9591226 59.76783946 73.75 59.75 C72.35007813 59.77416992 72.35007813 59.77416992 70.921875 59.79882812 C63.55916888 59.80404251 58.80173283 58.24655954 53.25 53.25 C52.65445313 52.72019531 52.05890625 52.19039062 51.4453125 51.64453125 C51.00960937 51.24621094 50.57390625 50.84789062 50.125 50.4375 C49.856875 51.55125 49.58875 52.665 49.3125 53.8125 C48.125 57.4375 48.125 57.4375 45.125 59.4375 C31.18923501 60.81674666 21.83102095 57.45352865 11.1328125 48.83203125 C2.01580263 40.53884758 -3.8503758 28.73524191 -9.5 17.9375 C-9.84289063 17.30392578 -10.18578125 16.67035156 -10.5390625 16.01757812 C-12.96301623 11.20501998 -13.44826965 7.69809211 -12.875 2.4375 C-8.63335919 -0.39026054 -4.99000278 0.0319417 0 0 Z M-3.875 8.4375 C7.00031677 32.51260651 7.00031677 32.51260651 26.30078125 49.484375 C31.45288613 51.179766 35.70221917 51.73328805 41.125 51.4375 C41.351875 50.344375 41.57875 49.25125 41.8125 48.125 C43.125 44.4375 43.125 44.4375 45.25 42.3125 C48.72241021 41.2556795 50.7712209 41.84307105 54.06640625 43.26953125 C56.91190344 44.88395944 59.22220882 46.87949037 61.58203125 49.1328125 C65.07462764 52.08604591 68.9730271 51.53981168 73.3125 51.5 C74.58480469 51.49097656 75.85710937 51.48195312 77.16796875 51.47265625 C78.14378906 51.46105469 79.11960937 51.44945312 80.125 51.4375 C76.458329 47.055381 72.80589131 43.10613505 68.4453125 39.40625 C66.33352993 36.25731977 66.60308185 34.14891798 67.125 30.4375 C68.59757726 27.6888818 70.46796024 25.34664699 72.4375 22.9375 C76.17726166 18.25676605 78.99969381 14.06629729 81.125 8.4375 C76.175 8.7675 71.225 9.0975 66.125 9.4375 C65.58875 10.901875 65.0525 12.36625 64.5 13.875 C61.84399705 20.50558892 58.46126502 27.65920864 52.125 31.4375 C49.765625 31.73046875 49.765625 31.73046875 47.375 31.625 C46.17617187 31.58439453 46.17617187 31.58439453 44.953125 31.54296875 C44.34984375 31.50816406 43.7465625 31.47335938 43.125 31.4375 C40.7770257 24.10008031 40.93144787 17.09356218 41.125 9.4375 C36.07490405 8.49963918 36.07490405 8.49963918 31.125 9.4375 C31.17720703 11.31695312 31.17720703 11.31695312 31.23046875 13.234375 C31.25861128 14.88540324 31.28591094 16.53644601 31.3125 18.1875 C31.33763672 19.0125 31.36277344 19.8375 31.38867188 20.6875 C31.4625863 26.7977592 31.4625863 26.7977592 29.78515625 29.9765625 C28.125 31.4375 28.125 31.4375 25.375 32.0625 C20.64904179 31.15366188 18.16092643 29.12836786 15.125 25.4375 C11.91084457 19.98741036 9.47193741 14.30484354 7.125 8.4375 C3.495 8.4375 -0.135 8.4375 -3.875 8.4375 Z " fill="#000000" transform="translate(61.875,78.5625)"/>
</svg>
