<?xml version="1.0" encoding="UTF-8"?>
<svg version="1.1" xmlns="http://www.w3.org/2000/svg" width="208" height="208">
<path d="M0 0 C1.40625 1.54296875 1.40625 1.54296875 1.40625 4.54296875 C1.98632812 4.62804687 2.56640625 4.713125 3.1640625 4.80078125 C10.24226428 7.14374003 14.80715595 16.39424704 18.02734375 22.6328125 C20.34623813 27.5267964 22.41535011 32.50801177 24.40625 37.54296875 C24.76203125 38.36023438 25.1178125 39.1775 25.484375 40.01953125 C31.54564858 56.6109835 27.87570726 78.57424522 20.78125 94.16796875 C16.80600417 102.47942133 11.59406081 111.59579377 4.40625 117.54296875 C3.41625 117.54296875 2.42625 117.54296875 1.40625 117.54296875 C1.31730469 118.13464844 1.22835937 118.72632813 1.13671875 119.3359375 C-0.9396618 125.60949371 -9.63836501 129.27982376 -15.09375 132.16796875 C-33.67912738 141.18867631 -54.53985737 144.19124862 -74.60473633 137.91381836 C-85.76185577 133.90873611 -97.12110292 129.01561583 -105.59375 120.54296875 C-105.59375 119.55296875 -105.59375 118.56296875 -105.59375 117.54296875 C-106.17382812 117.45917969 -106.75390625 117.37539062 -107.3515625 117.2890625 C-113.9924524 115.07928903 -118.90164408 106.1639849 -122.21484375 100.33203125 C-131.84686841 80.84969243 -134.07306182 56.41207751 -127.59375 35.54296875 C-123.79754452 24.39074606 -117.65942637 12.37445651 -108.59375 4.54296875 C-107.60375 4.54296875 -106.61375 4.54296875 -105.59375 4.54296875 C-105.50738281 3.95257813 -105.42101562 3.3621875 -105.33203125 2.75390625 C-103.32917815 -3.24405595 -95.1749568 -6.85480044 -89.90625 -9.64453125 C-60.53917075 -23.67171853 -25.50624234 -20.03382094 0 0 Z M-103.59375 12.54296875 C-103.59375 13.20296875 -103.59375 13.86296875 -103.59375 14.54296875 C-104.25375 14.54296875 -104.91375 14.54296875 -105.59375 14.54296875 C-107.15341905 16.65966246 -108.57554432 18.75734046 -109.96875 20.98046875 C-110.57710693 21.94509033 -110.57710693 21.94509033 -111.19775391 22.92919922 C-121.48624382 39.49470723 -124.72976699 57.51561537 -120.62890625 76.5703125 C-117.88673493 87.65609149 -113.16527193 98.87365686 -105.59375 107.54296875 C-104.60375 107.54296875 -103.61375 107.54296875 -102.59375 107.54296875 C-102.42875 108.22359375 -102.26375 108.90421875 -102.09375 109.60546875 C-96.83275011 119.9082602 -84.29381306 124.12977955 -74.00390625 127.8359375 C-54.751337 133.83476954 -36.27896878 131.98324283 -18.36328125 122.90625 C-12.807787 119.83520038 -8.15803718 116.65160577 -3.8984375 111.92578125 C-2.59375 110.54296875 -2.59375 110.54296875 -0.59375 109.54296875 C-0.59375 108.88296875 -0.59375 108.22296875 -0.59375 107.54296875 C0.06625 107.54296875 0.72625 107.54296875 1.40625 107.54296875 C13.16538342 92.13365247 20.42411238 72.561964 17.9609375 53.0078125 C15.29982639 39.19756344 10.83512929 25.33893502 1.40625 14.54296875 C0.41625 14.54296875 -0.57375 14.54296875 -1.59375 14.54296875 C-1.75875 13.86234375 -1.92375 13.18171875 -2.09375 12.48046875 C-7.5677685 1.76051586 -21.01056848 -2.45577207 -31.5546875 -6.62890625 C-55.97968086 -14.22142618 -86.6079135 -6.72211738 -103.59375 12.54296875 Z " fill="#FFFFFF" transform="translate(155.59375,42.45703125)"/>
<path d="M0 0 C0.78568359 -0.01998047 1.57136719 -0.03996094 2.38085938 -0.06054688 C8.79588377 -0.05517865 12.47086412 1.84586412 17.0625 6.4375 C17.578125 5.81875 18.09375 5.2 18.625 4.5625 C24.19650424 -0.29470882 30.95118859 0.05751322 38.02734375 0.1875 C42.86513495 0.58597958 45.6402696 1.86814232 48.875 5.4375 C50.67268223 9.979013 50.81635584 14.59100643 51.0625 19.4375 C51.31942627 18.93299316 51.57635254 18.42848633 51.84106445 17.90869141 C53.01105257 15.62243508 54.19285073 13.34249023 55.375 11.0625 C55.77912109 10.2684375 56.18324219 9.474375 56.59960938 8.65625 C56.99599609 7.89570312 57.39238281 7.13515625 57.80078125 6.3515625 C58.16212158 5.6498291 58.52346191 4.9480957 58.89575195 4.22509766 C60.0625 2.4375 60.0625 2.4375 63.0625 0.4375 C66.86056077 0.00074048 70.67955099 0.11331667 74.5 0.125 C75.54994141 0.10888672 76.59988281 0.09277344 77.68164062 0.07617188 C78.69291016 0.07552734 79.70417969 0.07488281 80.74609375 0.07421875 C81.66962646 0.07123779 82.59315918 0.06825684 83.54467773 0.06518555 C86.52199063 0.50544562 87.89156742 1.3848235 90.0625 3.4375 C91.72665104 9.69241252 89.72052489 15.42725308 86.70703125 20.8984375 C83.82494515 25.34821413 80.51006527 29.41676631 77.0625 33.4375 C78.54797891 37.05431823 80.57797618 38.95685683 83.5625 41.4375 C87.18920397 44.4519033 89.61270591 46.71258462 90.3984375 51.47265625 C90.50426811 56.96526512 90.50426811 56.96526512 88.25 59.375 C80.72783461 63.02862319 69.87672502 62.54759012 61.79296875 60.68359375 C57.44372576 59.02083969 53.99677436 57.172031 51.0625 53.4375 C50.629375 54.38625 50.19625 55.335 49.75 56.3125 C48.0625 59.4375 48.0625 59.4375 45.0625 61.4375 C32.51551312 63.06945606 21.12288573 58.69258587 11.0625 51.4375 C-0.29010027 41.61455204 -12.71855479 22.01747946 -14.3125 6.875 C-13.9375 3.4375 -13.9375 3.4375 -11.97265625 1.75 C-7.89540493 -0.0131357 -4.39525716 -0.03946762 0 0 Z M-2.9375 9.4375 C1.88015232 24.82140426 10.36994433 37.43565741 23.0625 47.4375 C23.70703125 47.96988281 24.3515625 48.50226563 25.015625 49.05078125 C29.53217543 52.11065797 35.6979257 52.78360157 41.0625 52.4375 C41.35125 51.32375 41.64 50.21 41.9375 49.0625 C43.0625 45.4375 43.0625 45.4375 45.0625 43.4375 C50.96675169 42.74288215 54.38452293 44.13605685 59.0625 47.4375 C60.73286393 48.76619858 62.40034732 50.09854368 64.0625 51.4375 C67.34769475 52.53256492 69.79913415 52.53710608 73.25 52.5 C74.33667969 52.49097656 75.42335938 52.48195312 76.54296875 52.47265625 C77.37441406 52.46105469 78.20585937 52.44945312 79.0625 52.4375 C78.69898438 52.01339844 78.33546875 51.58929688 77.9609375 51.15234375 C76.90173929 49.9166125 75.8473959 48.67671015 74.796875 47.43359375 C73.67628708 46.1439081 72.52135259 44.88294579 71.328125 43.66015625 C68.57767245 40.77218108 67.19310453 39.02522039 66.3125 35.0625 C67.37225902 29.9403314 69.99339446 26.59430208 73.0625 22.4375 C74.17639425 20.8191525 75.28093847 19.19432058 76.375 17.5625 C76.86613281 16.84320313 77.35726562 16.12390625 77.86328125 15.3828125 C79.21863213 13.35018303 79.21863213 13.35018303 80.0625 10.4375 C75.4425 10.4375 70.8225 10.4375 66.0625 10.4375 C65.32 12.29375 64.5775 14.15 63.8125 16.0625 C61.06016067 22.63409672 58.48209435 28.72840104 52.0625 32.4375 C49.03055569 32.75396557 46.09790036 32.67557062 43.0625 32.4375 C41.76737966 25.11944135 40.68522232 17.8446181 40.0625 10.4375 C37.4225 10.4375 34.7825 10.4375 32.0625 10.4375 C31.97162109 12.31695312 31.97162109 12.31695312 31.87890625 14.234375 C31.79447744 15.88542724 31.70983061 17.53646835 31.625 19.1875 C31.58568359 20.0125 31.54636719 20.8375 31.50585938 21.6875 C31.44301758 22.88632813 31.44301758 22.88632813 31.37890625 24.109375 C31.34224854 24.8425293 31.30559082 25.57568359 31.26782227 26.33105469 C31.06135215 28.44927605 30.63117914 30.3894456 30.0625 32.4375 C24.43798012 32.89664448 20.44207139 32.0160302 16.0625 28.4375 C14.22129045 25.90787438 12.95567458 23.22710923 11.6875 20.375 C11.34589844 19.65505859 11.00429687 18.93511719 10.65234375 18.19335938 C9.29846013 15.31167427 8.06979548 12.45938643 7.0625 9.4375 C3.7625 9.4375 0.4625 9.4375 -2.9375 9.4375 Z M19.0625 13.4375 C19.66433749 15.45795442 20.33556096 17.45861039 21.0625 19.4375 C21.7225 19.7675 22.3825 20.0975 23.0625 20.4375 C23.0625 18.4575 23.0625 16.4775 23.0625 14.4375 C21.7425 14.1075 20.4225 13.7775 19.0625 13.4375 Z " fill="#FFFFFF" transform="translate(61.9375,77.5625)"/>
</svg>
