<?xml version="1.0" encoding="UTF-8"?>
<svg version="1.1" xmlns="http://www.w3.org/2000/svg" width="208" height="208">
<path d="M0 0 C1.00675781 0.54398438 2.01351562 1.08796875 3.05078125 1.6484375 C10.1690372 5.77642186 15.38519011 11.21401871 20.65039062 17.41943359 C21.97842227 18.9747297 23.33622167 20.49838012 24.703125 22.01953125 C34.11194923 32.76643677 39.08595625 44.42847874 43 58 C43.18763916 58.64485352 43.37527832 59.28970703 43.56860352 59.95410156 C45.39860538 67.02474973 45.42515045 74.10523078 45.4375 81.375 C45.43889984 82.03618835 45.44029968 82.69737671 45.44174194 83.37860107 C45.42173111 94.9037997 43.95682809 105.17764539 40 116 C39.60425781 117.14339844 39.20851562 118.28679687 38.80078125 119.46484375 C34.61437616 130.49414353 27.53623144 138.80058807 19.546875 147.25 C17.60702459 149.34456241 15.89348713 151.4128505 14.1875 153.6875 C6.06891811 163.19387367 -7.54010835 168.74655161 -19 173 C-20.16015625 173.43570313 -21.3203125 173.87140625 -22.515625 174.3203125 C-45.9775665 181.58234201 -72.9412337 178.41027517 -94.49633789 167.07519531 C-96.34026631 166.06596604 -98.17083682 165.03568587 -100 164 C-101.00675781 163.45601562 -102.01351562 162.91203125 -103.05078125 162.3515625 C-110.1690372 158.22357814 -115.38519011 152.78598129 -120.65039062 146.58056641 C-121.97842227 145.0252703 -123.33622167 143.50161988 -124.703125 141.98046875 C-134.11194923 131.23356323 -139.08595625 119.57152126 -143 106 C-143.18763916 105.35514648 -143.37527832 104.71029297 -143.56860352 104.04589844 C-145.39860538 96.97525027 -145.42515045 89.89476922 -145.4375 82.625 C-145.43889984 81.96381165 -145.44029968 81.30262329 -145.44174194 80.62139893 C-145.42173111 69.0962003 -143.95682809 58.82235461 -140 48 C-139.60425781 46.85660156 -139.20851562 45.71320313 -138.80078125 44.53515625 C-134.61437616 33.50585647 -127.53623144 25.19941193 -119.546875 16.75 C-117.60702459 14.65543759 -115.89348713 12.5871495 -114.1875 10.3125 C-106.06891811 0.80612633 -92.45989165 -4.74655161 -81 -9 C-79.83984375 -9.43570312 -78.6796875 -9.87140625 -77.484375 -10.3203125 C-51.24082458 -18.4433162 -23.36512766 -13.22951001 0 0 Z M-119.3828125 21.50390625 C-126.81175606 30.34580574 -132.28118636 40.49766622 -136.375 51.25 C-136.6136377 51.87471191 -136.85227539 52.49942383 -137.09814453 53.14306641 C-144.87726622 74.71423899 -142.64579061 99.46369991 -133.390625 120.1484375 C-122.20669928 143.08176832 -104.60242496 159.29349409 -80.75 168.375 C-80.12528809 168.6136377 -79.50057617 168.85227539 -78.85693359 169.09814453 C-57.28576101 176.87726622 -32.53630009 174.64579061 -11.8515625 165.390625 C11.08176832 154.20669928 27.29349409 136.60242496 36.375 112.75 C36.6136377 112.12528809 36.85227539 111.50057617 37.09814453 110.85693359 C44.87726622 89.28576101 42.64579061 64.53630009 33.390625 43.8515625 C22.20669928 20.91823168 4.60242496 4.70650591 -19.25 -4.375 C-19.87471191 -4.6136377 -20.49942383 -4.85227539 -21.14306641 -5.09814453 C-56.1678559 -17.72898778 -94.49419967 -4.64953773 -119.3828125 21.50390625 Z " fill="#3B6EFF" transform="translate(154,22)"/>
<path d="M0 0 C3.12482562 -0.08687496 6.24934246 -0.14034568 9.375 -0.1875 C10.70917969 -0.22520508 10.70917969 -0.22520508 12.0703125 -0.26367188 C13.34648438 -0.27817383 13.34648438 -0.27817383 14.6484375 -0.29296875 C15.82672119 -0.31653442 15.82672119 -0.31653442 17.02880859 -0.34057617 C17.67930176 -0.22818604 18.32979492 -0.1157959 19 0 C19.66 0.99 20.32 1.98 21 3 C21.40774658 2.51104248 21.81549316 2.02208496 22.2355957 1.51831055 C24.41820934 -0.35987877 25.39266086 -0.35334764 28.23046875 -0.29296875 C29.03291016 -0.28330078 29.83535156 -0.27363281 30.66210938 -0.26367188 C31.49548828 -0.23853516 32.32886719 -0.21339844 33.1875 -0.1875 C34.4549707 -0.16719727 34.4549707 -0.16719727 35.74804688 -0.14648438 C37.83230384 -0.11115799 39.91623277 -0.05735139 42 0 C43.9789756 3.63616656 44.5251065 6.88425629 45 11 C46.65 7.37 48.3 3.74 50 0 C56.93 0 63.86 0 71 0 C71 3.63 71 7.26 71 11 C70.34 11 69.68 11 69 11 C68.62875 12.0828125 68.62875 12.0828125 68.25 13.1875 C66.89016326 16.24713266 65.17082246 18.4673738 63 21 C64.17208812 24.04742912 65.70868322 25.66421712 68.125 27.75 C70.06682044 29.588131 70.91120124 30.5080549 71.390625 33.1640625 C71.375 35.375 71.375 35.375 71 39 C67.49956737 40.75021631 63.54434036 40.26948691 59.6875 40.3125 C58.83220703 40.34150391 57.97691406 40.37050781 57.09570312 40.40039062 C52.77150542 40.44393406 50.60868252 40.39583505 46.89453125 37.98046875 C45.95673828 37.00013672 45.95673828 37.00013672 45 36 C44.47792969 36.97259766 44.47792969 36.97259766 43.9453125 37.96484375 C42 40 42 40 38.7421875 40.56640625 C27.96596569 40.55552118 21.71966227 38.64300767 13.75 31.25 C10.551361 27.87401072 8.25356355 24.42862261 6.1640625 20.28515625 C5.02586789 17.96692297 5.02586789 17.96692297 3.5859375 15.74609375 C3.12445313 15.00488281 2.66296875 14.26367188 2.1875 13.5 C1.55908203 12.52546875 1.55908203 12.52546875 0.91796875 11.53125 C-0.46167508 7.72695553 -0.17011303 4.00494677 0 0 Z M8 6 C10.32333752 14.82868258 16.02506964 24.06243697 23 30 C28.8323724 33.2801765 28.8323724 33.2801765 35.30078125 33.58984375 C36.14189453 33.29787109 36.14189453 33.29787109 37 33 C36.67 32.01 36.34 31.02 36 30 C39.4734195 27.86251108 41.95712072 27.38975407 46 28 C47.49055725 28.95130184 48.94664889 29.95762329 50.375 31 C54.86850365 34.24997038 57.54449645 34.59514584 63 34 C62.2575 33.2575 61.515 32.515 60.75 31.75 C59.8425 30.8425 58.935 29.935 58 29 C57.21625 28.360625 56.4325 27.72125 55.625 27.0625 C54 25 54 25 54.14453125 22.19921875 C55.13360038 18.50037117 56.56335196 16.62379986 59.0625 13.75 C62.02477779 10.77142877 62.02477779 10.77142877 63 7 C60.69 6.67 58.38 6.34 56 6 C55.18595703 7.48113281 55.18595703 7.48113281 54.35546875 8.9921875 C53.63318662 10.28666715 52.91050971 11.58092658 52.1875 12.875 C51.83107422 13.52597656 51.47464844 14.17695312 51.10742188 14.84765625 C49.29918897 18.06597903 48.12048255 19.9196783 45 22 C42.66800612 22.07905064 40.33167378 22.08798769 38 22 C36.90493508 18.71480525 36.90039392 16.26336585 36.9375 12.8125 C36.94652344 11.72582031 36.95554687 10.63914062 36.96484375 9.51953125 C36.97644531 8.68808594 36.98804687 7.85664062 37 7 C35.35 7 33.7 7 32 7 C31.90912109 8.13888672 31.90912109 8.13888672 31.81640625 9.30078125 C31.73261719 10.29464844 31.64882812 11.28851563 31.5625 12.3125 C31.48128906 13.29863281 31.40007812 14.28476563 31.31640625 15.30078125 C31 18 31 18 30 21 C27.3125 21.8125 27.3125 21.8125 24 22 C20.75374498 19.41775169 18.56765498 16.84788041 17 13 C16.34 13 15.68 13 15 13 C14.34 10.69 13.68 8.38 13 6 C11.35 6 9.7 6 8 6 Z M23 9 C23.66 10.32 24.32 11.64 25 13 C25 11.68 25 10.36 25 9 C24.34 9 23.68 9 23 9 Z " fill="#3B6EFF" transform="translate(67,85)"/>
</svg>
